<svg xmlns="http://www.w3.org/2000/svg" width="1024" height="500" viewBox="0 0 1024 500" xml:lang="ko">
  <defs>
    <linearGradient id="bg" x1="0%" y1="0%" x2="100%" y2="100%">
      <stop offset="0%" stop-color="#1d4ed8"/>
      <stop offset="55%" stop-color="#2563eb"/>
      <stop offset="100%" stop-color="#0f766e"/>
    </linearGradient>
    <linearGradient id="card" x1="0%" y1="0%" x2="0%" y2="100%">
      <stop offset="0%" stop-color="#ffffff" stop-opacity="0.98"/>
      <stop offset="100%" stop-color="#e0f2fe" stop-opacity="0.95"/>
    </linearGradient>
    <filter id="shadow" x="-20%" y="-20%" width="140%" height="140%">
      <feDropShadow dx="0" dy="12" stdDeviation="24" flood-color="#0f172a" flood-opacity="0.22"/>
    </filter>
  </defs>
  <rect width="1024" height="500" fill="url(#bg)"/>
  <circle cx="880" cy="80" r="140" fill="#ffffff" fill-opacity="0.08"/>
  <circle cx="120" cy="420" r="180" fill="#ffffff" fill-opacity="0.06"/>
  <g filter="url(#shadow)" transform="translate(560, 72)">
    <rect width="400" height="356" rx="20" fill="url(#card)"/>
    <rect x="28" y="28" width="344" height="44" rx="10" fill="#dbeafe"/>
    <rect x="28" y="92" width="160" height="12" rx="4" fill="#93c5fd"/>
    <rect x="28" y="116" width="220" height="12" rx="4" fill="#bfdbfe"/>
    <rect x="28" y="148" width="344" height="10" rx="3" fill="#e2e8f0"/>
    <rect x="28" y="168" width="300" height="10" rx="3" fill="#e2e8f0"/>
    <rect x="28" y="210" width="100" height="72" rx="12" fill="#2563eb" fill-opacity="0.15"/>
    <rect x="148" y="210" width="100" height="72" rx="12" fill="#0d9488" fill-opacity="0.2"/>
    <rect x="268" y="210" width="100" height="72" rx="12" fill="#2563eb" fill-opacity="0.1"/>
    <rect x="28" y="300" width="344" height="40" rx="10" fill="#2563eb"/>
  </g>
  <text x="56" y="168" fill="#ffffff" font-family="Malgun Gothic, Apple SD Gothic Neo, sans-serif" font-size="52" font-weight="800" letter-spacing="-2">&#xb300;&#xcd9c; &#xacc4;&#xc0b0;&#xae30;</text>
  <text x="56" y="228" fill="#e0f2fe" font-family="Malgun Gothic, Apple SD Gothic Neo, sans-serif" font-size="26" font-weight="600">&#xc6d4; &#xc0c1;&#xd658; &#xb7; &#xccd9; &#xc774;&#xc790; &#xb7; &#xae08;&#xb9ac;&#xb7;&#xae30;&#xac04; &#xbe44;&#xad50;&#xae4c;&#xc9c0; &#xd55c;&#xbc88;&#xc5d0;</text>
  <text x="56" y="278" fill="#bae6fd" font-family="Malgun Gothic, Apple SD Gothic Neo, sans-serif" font-size="20" font-weight="500">&#xc6d0;&#xb9ac;&#xae08;&#xade0;&#xb4f1; &#xb7; &#xc6d0;&#xae08;&#xade0;&#xb4f1; &#xb7; &#xb9cc;&#xae30;&#xc77c;&#xc2dc; &#xc0c1;&#xd658; &#xc2dc;&#xbbae;&#xb808;&#xc774;&#xc158;</text>
  <rect x="56" y="312" width="72" height="6" rx="3" fill="#fbbf24"/>
  <text x="56" y="370" fill="#e0f2fe" font-family="Malgun Gothic, Apple SD Gothic Neo, sans-serif" font-size="17" font-weight="500">&#xcc38;&#xace0;&#xc6a9; &#xacc4;&#xc0b0; &#xb7; &#xc800;&#xc7a5;&#xb7;&#xbe44;&#xad50; &#xb7; &#xc0ac;&#xc6a9; &#xac00;&#xc774;&#xb4dc; &#xb0b4;&#xc7a5;</text>
</svg>
